<?xml version="1.0" encoding="iso-8859-1"?>
<!-- Generator: Adobe Illustrator 21.0.0, SVG Export Plug-In . SVG Version: 6.00 Build 0)  -->
<svg xmlns="http://www.w3.org/2000/svg" xmlns:xlink="http://www.w3.org/1999/xlink" version="1.1" id="Capa_1" x="0px" y="0px" viewBox="0 0 511.97 511.97" style="enable-background:new 0 0 511.97 511.97;" xml:space="preserve" width="512" height="512">
<g>
	<g>
		<path style="fill:#54A0FF;" d="M210.681,171.18h-51.558H29.346c-8.733,0-15.813,7.08-15.813,15.813v109.11    c0,62.859,26.366,122.836,72.681,165.334l27.909,25.609c25.454,23.357,64.547,23.357,90.002,0l27.908-25.609    c40.547-37.207,65.804-87.809,71.465-142.014C276.764,294.893,225.283,254.655,210.681,171.18z"/>
		<path style="fill:#338DEF;" d="M134.122,487.047l-27.909-25.609c-46.315-42.499-72.681-102.475-72.681-165.334v-109.11    c0-8.733,7.08-15.813,15.813-15.813h-20c-8.733,0-15.813,7.08-15.813,15.813v109.11c0,62.859,26.366,122.836,72.681,165.334    l27.909,25.609c15.365,14.099,35.697,19.672,55.001,16.751C156.446,501.879,144.212,496.305,134.122,487.047z"/>
		<path style="fill:#FF6B6B;" d="M203.232,409.65h-88.218c-2.608,0-4.572-2.43-3.967-4.967    c5.187-21.751,24.737-37.928,48.076-37.928c23.34,0,42.889,16.177,48.076,37.928C207.804,407.22,205.84,409.65,203.232,409.65z"/>
		<path style="fill:#EE5253;" d="M131.047,404.683c4.426-18.557,19.308-33.048,38.076-36.907c-3.23-0.664-6.573-1.022-10-1.022    c-23.34,0-42.889,16.177-48.076,37.929c-0.605,2.537,1.36,4.967,3.967,4.967h20C132.406,409.65,130.442,407.22,131.047,404.683z"/>
		<path style="fill:#FECA57;" d="M482.535,7.596H351.591H220.648c-8.812,0-15.955,7.144-15.955,15.955v110.09    c0,63.424,26.603,123.94,73.334,166.82l28.159,25.839c25.683,23.567,65.128,23.567,90.811,0l28.159-25.839    c46.731-42.881,73.334-103.397,73.334-166.82V23.551C498.49,14.739,491.347,7.596,482.535,7.596z"/>
		<path style="fill:#F4B537;" d="M326.186,326.301l-28.159-25.839c-46.731-42.881-73.334-103.396-73.334-166.82V23.551    c0-8.812,7.143-15.955,15.955-15.955h-20c-8.812,0-15.955,7.144-15.955,15.955v110.09c0,63.424,26.603,123.94,73.334,166.82    l28.159,25.839c15.479,14.204,35.955,19.833,55.405,16.916C348.769,341.294,336.39,335.665,326.186,326.301z"/>
		<circle style="fill:#F4B537;" cx="291.549" cy="131.193" r="20.357"/>
		<circle style="fill:#F4B537;" cx="414.25" cy="131.193" r="20.357"/>
		<path style="fill:#E59D1F;" d="M291.192,131.193c0-7.605,4.178-14.225,10.357-17.72c-2.955-1.672-6.362-2.637-10-2.637    c-11.243,0-20.357,9.114-20.357,20.357s9.114,20.357,20.357,20.357c3.638,0,7.045-0.966,10-2.637    C295.37,145.418,291.192,138.798,291.192,131.193z"/>
		<path style="fill:#E59D1F;" d="M413.893,131.193c0-7.605,4.178-14.225,10.357-17.72c-2.955-1.672-6.363-2.637-10-2.637    c-11.243,0-20.357,9.114-20.357,20.357s9.114,20.357,20.357,20.357c3.637,0,7.045-0.966,10-2.637    C418.072,145.418,413.893,138.798,413.893,131.193z"/>
		<path style="fill:#FF6B6B;" d="M397.009,203.17h-88.218c-2.608,0-4.572,2.43-3.967,4.967    c5.187,21.751,24.737,37.928,48.076,37.928c23.34,0,42.889-16.177,48.076-37.928C401.581,205.6,399.617,203.17,397.009,203.17z"/>
		<path style="fill:#EE5253;" d="M324.823,208.137c-0.605-2.537,1.36-4.967,3.967-4.967h-20c-2.607,0-4.572,2.43-3.967,4.967    c5.187,21.751,24.737,37.929,48.076,37.929c3.427,0,6.77-0.358,10-1.022C344.132,241.185,329.249,226.694,324.823,208.137z"/>
	</g>
	<g>
		<path d="M319.38,131.097c0-15.361-12.497-27.857-27.857-27.857s-27.857,12.497-27.857,27.857c0,15.36,12.497,27.857,27.857,27.857    S319.38,146.458,319.38,131.097z M291.523,143.954c-7.09,0-12.857-5.768-12.857-12.857c0-7.09,5.768-12.857,12.857-12.857    s12.857,5.768,12.857,12.857C304.38,138.187,298.613,143.954,291.523,143.954z"/>
		<path d="M442.082,131.097c0-15.361-12.497-27.857-27.857-27.857s-27.857,12.497-27.857,27.857    c0,15.36,12.497,27.857,27.857,27.857S442.082,146.458,442.082,131.097z M401.367,131.097c0-7.09,5.768-12.857,12.857-12.857    s12.857,5.768,12.857,12.857c0,7.089-5.768,12.857-12.857,12.857S401.367,138.187,401.367,131.097z"/>
		<path d="M352.874,253.47c26.469,0,49.238-17.966,55.371-43.688c1.726-7.233-3.787-14.208-11.262-14.208h-88.219    c-7.465,0-12.99,6.965-11.263,14.207C303.635,235.504,326.405,253.47,352.874,253.47z M392.396,210.574    c-5.858,16.628-21.529,27.896-39.522,27.896c-17.992,0-33.663-11.268-39.522-27.896H392.396z"/>
		<path d="M110.603,304.86c0,4.142,3.357,7.5,7.5,7.5s7.5-3.358,7.5-7.5c0-15.361-12.496-27.857-27.856-27.857    S69.889,289.5,69.889,304.86c0,4.142,3.357,7.5,7.5,7.5s7.5-3.358,7.5-7.5c0-7.09,5.768-12.857,12.857-12.857    C104.835,292.003,110.603,297.771,110.603,304.86z"/>
		<path d="M207.59,304.86c0-7.09,5.768-12.857,12.856-12.857c7.09,0,12.857,5.768,12.857,12.857c0,4.142,3.357,7.5,7.5,7.5    s7.5-3.358,7.5-7.5c0-15.361-12.497-27.857-27.857-27.857S192.59,289.5,192.59,304.86c0,4.142,3.357,7.5,7.5,7.5    S207.59,309.002,207.59,304.86z"/>
		<path d="M103.724,402.849c-1.724,7.234,3.791,14.206,11.264,14.206h88.218c7.465,0,12.99-6.964,11.263-14.207    c-6.135-25.724-28.904-43.689-55.372-43.689C132.629,359.159,109.86,377.124,103.724,402.849z M198.62,402.054h-79.046    C132.638,364.973,185.535,364.918,198.62,402.054z"/>
		<path d="M482.651,0H223.096c-12.854,0-23.313,10.458-23.313,23.313v109.11c0,10.476,0.727,20.884,2.129,31.162h-25.924    c-4.143,0-7.5,3.358-7.5,7.5s3.357,7.5,7.5,7.5h28.453c15.208,74.714,55.804,111.259,91.148,143.691    c-6.249,51.262-30.536,98.562-68.655,133.541l-27.907,25.609c-22.765,20.888-57.099,20.888-79.861,0l-27.909-25.609    c-44.646-40.967-70.251-99.215-70.251-159.808v-109.11c0-4.584,3.729-8.313,8.313-8.313h111.669c4.143,0,7.5-3.358,7.5-7.5    s-3.357-7.5-7.5-7.5H29.32c-12.855,0-23.313,10.458-23.313,23.313v109.11c0,64.783,27.377,127.06,75.109,170.86l27.909,25.61    c28.301,25.969,71.796,26.011,100.145,0l27.907-25.609c38.287-35.132,63.508-81.892,71.964-132.866    c28.427,20.909,67.778,18.866,93.905-5.11l27.908-25.608c47.733-43.8,75.11-106.077,75.11-170.861v-18.317    c0-4.142-3.357-7.5-7.5-7.5s-7.5,3.358-7.5,7.5v18.317c0,60.594-25.605,118.842-70.251,159.809l-27.909,25.608    c-22.764,20.889-57.095,20.889-79.86,0c-31.787-29.167-29.385-26.913-32.929-30.384c-41.392-40.521-65.23-96.618-65.23-155.033    V23.313c0-4.584,3.729-8.313,8.313-8.313h259.555c4.584,0,8.313,3.729,8.313,8.313v55.792c0,4.142,3.357,7.5,7.5,7.5    s7.5-3.358,7.5-7.5V23.313C505.963,10.458,495.505,0,482.651,0z"/>
	</g>
</g>















</svg>
