<?xml version="1.0" encoding="iso-8859-1"?>
<!-- Generator: Adobe Illustrator 19.0.0, SVG Export Plug-In . SVG Version: 6.00 Build 0)  -->
<svg version="1.1" id="Capa_1" xmlns="http://www.w3.org/2000/svg" xmlns:xlink="http://www.w3.org/1999/xlink" x="0px" y="0px"
	 viewBox="0 0 512 512" style="enable-background:new 0 0 512 512;" xml:space="preserve">
<path style="fill:#A5DC69;" d="M421.975,92.003c0.001,25.404-20.599,45.999-46.001,46c-25.406-0.001-46.002-20.596-46.001-46
	c-0.001-25.405,20.595-46,46-46C401.376,46.004,421.975,66.599,421.975,92.003z"/>
<circle style="fill:#F5C86E;" cx="136.029" cy="50" r="40"/>
<path style="fill:#FF5A5A;" d="M214.527,138.003c-0.001-25.405,20.595-46,46-46c25.403,0,46.002,20.596,46.002,46H214.527z"/>
<polygon style="fill:#9BBEFF;" points="21.002,138.003 21.002,192.002 208.001,379.001 208.001,502 304,468 304,379.001 
	490.999,192.002 490.999,138.003 "/>
<rect x="21" y="137.999" style="fill:#6E87F5;" width="469.996" height="54"/>
<path d="M125.751,306.752c-2.63,0-5.21-1.07-7.07-2.931c-1.86-1.859-2.93-4.439-2.93-7.069c0-2.63,1.07-5.21,2.93-7.07
	c1.86-1.86,4.44-2.93,7.07-2.93c2.63,0,5.21,1.069,7.07,2.93c1.86,1.861,2.93,4.44,2.93,7.07c0,2.64-1.07,5.21-2.93,7.069
	C130.961,305.682,128.381,306.752,125.751,306.752z"/>
<path d="M136.026,99.998c-27.571-0.001-50.001-22.431-50-49.999c0-13.355,5.201-25.911,14.644-35.355
	C110.115,5.201,122.671,0,136.025,0c27.57,0,50,22.43,50,50l0,0l0,0C186.026,77.567,163.597,99.997,136.026,99.998z M136.025,20
	c-8.013,0-15.547,3.121-21.213,8.787c-5.667,5.666-8.787,13.199-8.787,21.213c0,16.541,13.458,29.998,30,29.999
	c16.542-0.001,30-13.458,30-29.999l0,0C166.026,33.458,152.568,20,136.025,20z"/>
<path d="M490.999,128.003h-72.173c8.198-9.742,13.15-22.301,13.15-36c0-30.879-25.122-56-56.001-56
	c-14.958,0-29.021,5.825-39.599,16.402s-16.402,24.64-16.402,39.598c0,13.322,4.631,25.928,13.115,36h-17.474
	c-4.731-26.122-27.625-46-55.089-46c-14.958,0-29.021,5.825-39.599,16.402c-8.179,8.179-13.502,18.447-15.501,29.598H21.002
	c-5.523,0-10,4.478-10,10v54c0,2.652,1.054,5.195,2.929,7.071l78.749,78.749c3.905,3.904,10.237,3.904,14.143,0
	c3.905-3.905,3.905-10.237,0-14.143l-61.679-61.679h344.854c5.523,0,10-4.478,10-10s-4.477-10-10-10H31.002v-34h449.996v39.857
	L296.929,371.93c-1.875,1.876-2.929,4.419-2.929,7.071v81.932l-75.999,26.917V379.001c0-2.652-1.054-5.195-2.929-7.071l-57-57
	c-3.905-3.904-10.237-3.904-14.143,0c-3.905,3.905-3.905,10.237,0,14.143L198,383.144V502c0,3.247,1.577,6.292,4.229,8.166
	c1.711,1.21,3.731,1.834,5.772,1.834c1.122,0,2.251-0.189,3.337-0.574l95.999-34c3.993-1.414,6.662-5.19,6.662-9.426v-84.856
	l184.07-184.07c1.875-1.876,2.929-4.419,2.929-7.071v-54C500.999,132.48,496.522,128.003,490.999,128.003z M350.518,117.458
	c-6.8-6.8-10.544-15.84-10.544-25.455c0-9.616,3.744-18.656,10.544-25.455c6.8-6.8,15.84-10.545,25.457-10.545
	c19.851,0,36.001,16.149,36.001,36c0,19.85-16.15,35.999-36,36C366.359,128.003,357.318,124.258,350.518,117.458z M235.071,112.548
	c6.8-6.8,15.84-10.545,25.457-10.545c16.381,0,30.232,11.001,34.578,26h-69.168C227.598,122.221,230.699,116.919,235.071,112.548z"
	/>
<path d="M426.999,202.002c-2.63,0-5.21-1.07-7.07-2.931c-1.86-1.859-2.93-4.439-2.93-7.069s1.07-5.21,2.93-7.07
	c1.86-1.86,4.44-2.93,7.07-2.93c2.63,0,5.21,1.069,7.07,2.93c1.86,1.861,2.93,4.44,2.93,7.07s-1.07,5.21-2.93,7.069
	C432.209,200.932,429.629,202.002,426.999,202.002z"/>
<g>
</g>
<g>
</g>
<g>
</g>
<g>
</g>
<g>
</g>
<g>
</g>
<g>
</g>
<g>
</g>
<g>
</g>
<g>
</g>
<g>
</g>
<g>
</g>
<g>
</g>
<g>
</g>
<g>
</g>
</svg>
