<?xml version="1.0" encoding="iso-8859-1"?>
<!-- Generator: Adobe Illustrator 19.0.0, SVG Export Plug-In . SVG Version: 6.00 Build 0)  -->
<svg version="1.1" id="Capa_1" xmlns="http://www.w3.org/2000/svg" xmlns:xlink="http://www.w3.org/1999/xlink" x="0px" y="0px"
	 viewBox="0 0 512.004 512.004" style="enable-background:new 0 0 512.004 512.004;" xml:space="preserve">
<path style="fill:#F7D291;" d="M440.375,432.355v-16.032c-8.854,0-16.032-7.178-16.032-16.032c0-8.855,7.178-16.032,16.032-16.032
	V127.742c-8.854,0-16.032-7.178-16.032-16.032c0-8.855,7.178-16.032,16.032-16.032V79.645c8.854,0,16.032-7.178,16.032-16.032
	c0-8.317-6.355-15.073-14.461-15.874l4.086-20.432c1.122-5.609-3.824-10.554-9.433-9.433l-28.29,5.658
	c0-8.855-7.178-16.032-16.032-16.032s-16.032,7.178-16.032,16.032h-16.031c0,8.854-7.178,16.032-16.032,16.032
	s-16.032-7.178-16.032-16.032h-144.29c0,8.854-7.178,16.032-16.032,16.032s-16.032-7.178-16.032-16.032h-16.032
	c0-8.855-7.178-16.032-16.032-16.032s-16.032,7.178-16.032,16.032l-28.29-5.658c-5.609-1.122-10.554,3.823-9.433,9.433l4.086,20.432
	c-8.106,0.801-14.461,7.557-14.461,15.874c0,8.854,7.178,16.032,16.032,16.032v16.032c8.854,0,16.032,7.178,16.032,16.032
	s-7.178,16.032-16.032,16.032v256.516c8.854,0,16.032,7.178,16.032,16.032s-7.178,16.032-16.032,16.032v16.032
	c-8.854,0-16.032,7.178-16.032,16.032c0,8.316,6.355,15.073,14.461,15.874l-4.086,20.432c-1.122,5.609,3.824,10.554,9.433,9.433
	l28.29-5.658c0,8.854,7.178,16.032,16.032,16.032c8.854,0,16.032-7.178,16.032-16.032h16.032c0-8.855,7.178-16.032,16.032-16.032
	s16.032,7.178,16.032,16.032h144.29c0-8.855,7.178-16.032,16.032-16.032s16.032,7.178,16.032,16.032h16.032
	c0,8.854,7.178,16.032,16.032,16.032s16.032-7.178,16.032-16.032l28.29,5.658c5.609,1.122,10.554-3.824,9.433-9.433l-4.086-20.432
	c8.106-0.801,14.461-7.558,14.461-15.874C456.407,439.532,449.229,432.355,440.375,432.355z M352.198,400.29H159.81V111.71h192.387
	v288.58H352.198z"/>
<path style="fill:#CD916E;" d="M127.745,79.645v352.71h256.516V79.645H127.745z M352.198,400.29H159.81V111.71h192.387v288.58
	H352.198z"/>
<path style="fill:#F0C382;" d="M441.978,464.419H135.762c-22.136,0-40.081-17.945-40.081-40.081V21.929l-20.273-4.055
	c-5.609-1.122-10.555,3.824-9.433,9.433l4.086,20.432c-8.106,0.801-14.461,7.557-14.461,15.874c0,8.854,7.179,16.032,16.032,16.032
	v16.032c8.854,0,16.032,7.178,16.032,16.032s-7.179,16.032-16.032,16.032v256.516c8.854,0,16.032,7.178,16.032,16.032
	s-7.179,16.032-16.032,16.032v16.032c-8.854,0-16.032,7.178-16.032,16.032c0,8.316,6.355,15.073,14.461,15.874l-4.086,20.432
	c-1.122,5.609,3.824,10.554,9.433,9.433l28.29-5.658c0,8.854,7.179,16.032,16.032,16.032s16.032-7.178,16.032-16.032h16.032
	c0-8.855,7.178-16.032,16.032-16.032s16.032,7.178,16.032,16.032h144.29c0-8.855,7.178-16.032,16.032-16.032
	s16.032,7.178,16.032,16.032h16.032c0,8.854,7.178,16.032,16.032,16.032s16.032-7.178,16.032-16.032l28.29,5.658
	c5.609,1.122,10.554-3.824,9.433-9.433L441.978,464.419z"/>
<path d="M296.082,424.855H215.92c-4.142,0-7.5,3.358-7.5,7.5s3.358,7.5,7.5,7.5h80.162c4.142,0,7.5-3.358,7.5-7.5
	S300.224,424.855,296.082,424.855z"/>
<path d="M384.262,160.321c-4.142,0-7.5,3.358-7.5,7.5v176.354c0,4.142,3.358,7.5,7.5,7.5s7.5-3.358,7.5-7.5V167.821
	C391.762,163.679,388.404,160.321,384.262,160.321z"/>
<path d="M391.762,82.751l5.819-5.819c2.929-2.929,2.929-7.678,0-10.606c-2.928-2.929-7.677-2.929-10.606,0l-5.819,5.819h-53.009
	c-4.142,0-7.5,3.358-7.5,7.5s3.358,7.5,7.5,7.5h38.009l-17.065,17.064H162.917l-17.065-17.064h38.008c4.142,0,7.5-3.358,7.5-7.5
	s-3.358-7.5-7.5-7.5h-53.008l-5.819-5.819c-2.929-2.929-7.678-2.929-10.606,0c-2.929,2.929-2.929,7.678,0,10.606l5.819,5.819v53.004
	c0,4.142,3.358,7.5,7.5,7.5s7.5-3.358,7.5-7.5V97.751l17.065,17.065v282.368l-17.065,17.065v-38.007c0-4.142-3.358-7.5-7.5-7.5
	s-7.5,3.358-7.5,7.5v53.007l-5.819,5.819c-2.929,2.929-2.929,7.678,0,10.606c1.464,1.465,3.384,2.197,5.303,2.197
	c1.919,0,3.839-0.732,5.303-2.197l5.819-5.819h53.009c4.142,0,7.5-3.358,7.5-7.5s-3.358-7.5-7.5-7.5h-38.009l17.065-17.064H349.09
	l17.065,17.064h-38.008c-4.142,0-7.5,3.358-7.5,7.5s3.358,7.5,7.5,7.5h53.008l5.819,5.819c1.464,1.464,3.384,2.197,5.303,2.197
	s3.839-0.732,5.303-2.197c2.929-2.929,2.929-7.678,0-10.606l-5.819-5.819v-53.007c0-4.142-3.358-7.5-7.5-7.5s-7.5,3.358-7.5,7.5
	v38.007l-17.065-17.065V114.816l17.065-17.065v38.004c0,4.142,3.358,7.5,7.5,7.5s7.5-3.358,7.5-7.5V82.751z M167.311,119.209
	h177.387V392.79H167.311V119.209z"/>
<path d="M215.926,87.145h80.162c4.142,0,7.5-3.358,7.5-7.5s-3.358-7.5-7.5-7.5h-80.162c-4.142,0-7.5,3.358-7.5,7.5
	S211.784,87.145,215.926,87.145z"/>
<path d="M127.745,351.675c4.142,0,7.5-3.358,7.5-7.5V167.821c0-4.142-3.358-7.5-7.5-7.5s-7.5,3.358-7.5,7.5v176.354
	C120.245,348.317,123.604,351.675,127.745,351.675z"/>
<path d="M463.907,111.042c0-4.142-3.358-7.5-7.5-7.5s-7.5,3.358-7.5,7.5c0,5.073-3.828,9.2-8.532,9.2s-8.532-4.127-8.532-9.2
	c0-4.136,1.754-7.969,4.812-10.518l17.042-14.201c6.488-5.408,10.21-13.441,10.21-22.042c0-9.561-5.421-17.843-13.266-21.772
	l2.746-13.731c1.02-5.099-0.566-10.337-4.243-14.014c-3.676-3.677-8.915-5.263-14.015-4.244l-21.08,4.216
	C410.458,6.106,401.757,0,391.609,0c-8.601,0-16.634,3.721-22.041,10.21l-14.202,17.042c-2.549,3.059-6.382,4.812-10.518,4.812
	c-5.073,0-9.2-3.828-9.2-8.532s4.127-8.532,9.2-8.532c4.142,0,7.5-3.358,7.5-7.5s-3.358-7.5-7.5-7.5
	c-10.648,0-19.704,6.724-22.933,16.032H190.091C186.863,6.724,177.806,0,167.159,0c-4.142,0-7.5,3.358-7.5,7.5s3.358,7.5,7.5,7.5
	c5.063,0,9.182,3.813,9.199,8.504c0,0.009-0.001,0.018-0.001,0.028s0.001,0.018,0.001,0.028c-0.016,4.692-4.136,8.504-9.199,8.504
	c-4.136,0-7.969-1.754-10.518-4.812L142.439,10.21C137.032,3.721,128.999,0,120.398,0c-10.146,0-18.849,6.106-22.44,14.736
	l-21.08-4.216c-5.102-1.019-10.338,0.567-14.015,4.244c-3.676,3.677-5.262,8.916-4.243,14.014l2.746,13.732
	c-7.846,3.928-13.266,12.211-13.266,21.772c0,8.6,3.722,16.634,10.21,22.042l17.041,14.201c3.059,2.549,4.813,6.382,4.813,10.518
	c0,5.072-3.825,9.197-8.528,9.2c-0.002,0-0.003,0-0.005,0s-0.003,0-0.005,0c-4.702-0.003-8.528-4.128-8.528-9.2
	c0-4.142-3.358-7.5-7.5-7.5s-7.5,3.358-7.5,7.5c0,10.648,6.724,19.704,16.032,22.933v244.052
	c-9.308,3.228-16.032,12.285-16.032,22.933c0,4.142,3.358,7.5,7.5,7.5s7.5-3.358,7.5-7.5c0-5.07,3.823-9.194,8.523-9.2
	c0.003,0,0.006,0,0.009,0s0.006,0,0.009,0c4.7,0.005,8.523,4.13,8.523,9.2c0,4.136-1.754,7.969-4.812,10.518L58.308,425.68
	c-6.488,5.408-10.21,13.441-10.21,22.042c0,9.561,5.42,17.843,13.266,21.772l-2.746,13.731c-1.02,5.099,0.566,10.338,4.243,14.015
	c2.943,2.943,6.886,4.547,10.958,4.546c1.016,0,2.039-0.1,3.057-0.303l21.079-4.216c3.591,8.63,12.293,14.737,22.44,14.737
	c8.601,0,16.635-3.722,22.041-10.21l14.202-17.042c2.548-3.059,6.382-4.812,10.518-4.812c5.063,0,9.182,3.812,9.199,8.504
	c0,0.009-0.001,0.018-0.001,0.028s0.001,0.018,0.001,0.028c-0.016,4.692-4.136,8.504-9.199,8.504c-4.142,0-7.5,3.357-7.5,7.5
	s3.358,7.5,7.5,7.5c10.648,0,19.704-6.724,22.933-16.032h131.825c3.228,9.308,12.285,16.032,22.933,16.032
	c4.142,0,7.5-3.357,7.5-7.5s-3.358-7.5-7.5-7.5c-5.063,0-9.182-3.812-9.199-8.504c0-0.009,0.001-0.018,0.001-0.028
	s-0.001-0.018-0.001-0.028c0.016-4.692,4.136-8.504,9.199-8.504c4.136,0,7.969,1.754,10.518,4.813l14.201,17.04
	c5.407,6.489,13.44,10.211,22.042,10.211c10.147,0,18.85-6.107,22.44-14.737l21.079,4.216c1.018,0.203,2.042,0.303,3.057,0.303
	c4.071,0,8.015-1.604,10.958-4.546c3.677-3.677,5.263-8.916,4.243-14.015l-2.746-13.731c7.846-3.928,13.266-12.211,13.266-21.772
	c0-8.6-3.722-16.634-10.21-22.042l-17.041-14.201c-3.059-2.549-4.813-6.382-4.813-10.518c0-5.07,3.823-9.194,8.523-9.2
	c0.003,0,0.006,0,0.009,0s0.006,0,0.009,0c4.7,0.005,8.523,4.13,8.523,9.2c0,4.142,3.358,7.5,7.5,7.5s7.5-3.358,7.5-7.5
	c0-10.648-6.724-19.704-16.032-22.933V133.974C457.182,130.746,463.907,121.689,463.907,111.042z M427.053,423l17.041,14.201
	c3.059,2.549,4.813,6.383,4.813,10.518c0,5.073-3.828,9.2-8.532,9.2s-8.532-4.127-8.532-9.2c0-4.142-3.358-7.5-7.5-7.5
	s-7.5,3.358-7.5,7.5c0,11.711,8.131,21.503,18.892,23.725l2.944,14.719c0.019,0.095,0.054,0.271-0.141,0.467
	c-0.195,0.195-0.372,0.16-0.467,0.141l-23.157-4.632c-2.851-9.91-12.215-17.203-23.304-17.203c-4.142,0-7.5,3.358-7.5,7.5
	s3.358,7.5,7.5,7.5c5.073,0,9.201,3.827,9.201,8.532S396.682,497,391.609,497c-4.136,0-7.969-1.754-10.518-4.813l-14.201-17.04
	c-5.407-6.489-13.441-10.211-22.042-10.211c-10.648,0-19.704,6.724-22.933,16.032H190.091c-3.228-9.308-12.285-16.032-22.933-16.032
	c-8.601,0-16.635,3.722-22.042,10.21l-14.202,17.042c-2.548,3.059-6.381,4.812-10.517,4.812c-5.073,0-9.201-3.827-9.201-8.532
	s4.127-8.532,9.201-8.532c4.142,0,7.5-3.358,7.5-7.5s-3.358-7.5-7.5-7.5c-11.089,0-20.454,7.293-23.304,17.203l-23.157,4.632
	c-0.095,0.021-0.271,0.055-0.466-0.141c-0.195-0.196-0.16-0.372-0.141-0.467l2.944-14.719c10.76-2.222,18.892-12.015,18.892-23.725
	c0-4.142-3.358-7.5-7.5-7.5s-7.5,3.358-7.5,7.5c0,5.073-3.828,9.2-8.532,9.2s-8.532-4.127-8.532-9.2
	c0-4.135,1.754-7.969,4.813-10.518L84.956,423c6.488-5.408,10.209-13.441,10.209-22.042c0-10.648-6.724-19.704-16.032-22.933
	V133.974c9.308-3.228,16.032-12.285,16.032-22.933c0-8.6-3.721-16.634-10.21-22.042l-17.041-14.2
	c-3.059-2.549-4.813-6.383-4.813-10.518c0-5.073,3.828-9.2,8.532-9.2c4.704,0,8.532,4.127,8.532,9.2c0,4.142,3.358,7.5,7.5,7.5
	s7.5-3.358,7.5-7.5c0-11.711-8.131-21.503-18.892-23.725l-2.944-14.72c-0.019-0.095-0.054-0.271,0.141-0.466
	c0.195-0.195,0.372-0.161,0.467-0.141l23.156,4.631c2.85,9.911,12.215,17.204,23.305,17.204c4.142,0,7.5-3.358,7.5-7.5
	s-3.358-7.5-7.5-7.5c-5.073,0-9.201-3.828-9.201-8.532S115.325,15,120.398,15c4.136,0,7.969,1.754,10.518,4.812l14.202,17.042
	c5.407,6.489,13.44,10.21,22.042,10.21c10.648,0,19.704-6.724,22.933-16.032h131.825c3.228,9.308,12.285,16.032,22.933,16.032
	c8.601,0,16.635-3.721,22.042-10.21l14.202-17.042c2.546-3.058,6.379-4.812,10.515-4.812c5.073,0,9.201,3.828,9.201,8.532
	s-4.127,8.532-9.201,8.532c-4.142,0-7.5,3.358-7.5,7.5s3.358,7.5,7.5,7.5c11.09,0,20.454-7.294,23.305-17.204l23.156-4.631
	c0.093-0.02,0.271-0.055,0.467,0.141c0.195,0.195,0.16,0.371,0.141,0.466l-2.944,14.72c-10.76,2.222-18.892,12.015-18.892,23.725
	c0,4.142,3.358,7.5,7.5,7.5s7.5-3.358,7.5-7.5c0-5.073,3.828-9.2,8.532-9.2s8.532,4.127,8.532,9.2c0,4.135-1.754,7.969-4.813,10.518
	L427.052,89c-6.488,5.408-10.209,13.441-10.209,22.042c0,10.648,6.724,19.704,16.032,22.933v244.052
	c-9.308,3.228-16.032,12.285-16.032,22.933C416.842,409.559,420.564,417.592,427.053,423z"/>
<g>
</g>
<g>
</g>
<g>
</g>
<g>
</g>
<g>
</g>
<g>
</g>
<g>
</g>
<g>
</g>
<g>
</g>
<g>
</g>
<g>
</g>
<g>
</g>
<g>
</g>
<g>
</g>
<g>
</g>
</svg>
