<?xml version="1.0" standalone="no"?>
<!DOCTYPE svg PUBLIC "-//W3C//DTD SVG 20010904//EN"
 "http://www.w3.org/TR/2001/REC-SVG-20010904/DTD/svg10.dtd">
<svg version="1.0" xmlns="http://www.w3.org/2000/svg"
 width="256.000000pt" height="256.000000pt" viewBox="0 0 256.000000 256.000000"
 preserveAspectRatio="xMidYMid meet">
<metadata>
Created by potrace 1.15, written by Peter Selinger 2001-2017
</metadata>
<g transform="translate(0.000000,256.000000) scale(0.100000,-0.100000)"
fill="#000000" stroke="none">
<path d="M1158 2541 c-65 -26 -123 -74 -154 -127 l-26 -44 -268 0 c-231 0
-271 -2 -284 -16 -19 -19 -20 -25 -3 -47 11 -15 86 -17 964 -19 948 -3 952 -3
980 -24 97 -72 97 -186 0 -258 -28 -21 -29 -21 -1080 -21 -1170 0 -1087 -5
-1138 67 -32 44 -32 122 0 166 29 41 52 53 126 67 51 9 61 14 63 34 7 48 -38
63 -123 40 -98 -26 -163 -105 -172 -209 -10 -110 62 -211 172 -239 36 -9 45
-16 45 -33 0 -39 109 -1563 116 -1608 14 -109 95 -214 192 -250 51 -19 79 -20
721 -20 l668 0 61 31 c34 17 77 49 97 71 71 83 69 69 130 940 31 436 58 808
61 825 4 28 11 34 43 43 54 14 100 48 136 99 27 39 30 50 30 124 0 72 -3 87
-27 123 -35 55 -70 81 -131 99 -41 12 -120 15 -412 15 l-360 0 -20 36 c-23 44
-81 96 -137 125 -61 32 -203 37 -270 10z m216 -76 c38 -16 116 -81 116 -96 0
-5 -95 -9 -211 -9 l-212 0 25 33 c39 50 119 87 188 87 32 0 74 -7 94 -15z
m846 -597 c0 -104 -111 -1595 -122 -1630 -15 -51 -73 -117 -122 -139 -38 -17
-81 -19 -692 -19 l-650 0 -52 26 c-63 32 -108 89 -121 158 -6 28 -33 380 -61
781 -27 402 -53 760 -56 798 l-7 67 942 0 941 0 0 -42z"/>
<path d="M694 1786 c-17 -8 -44 -31 -60 -52 l-29 -37 0 -673 c0 -664 0 -673
21 -700 71 -95 198 -97 262 -4 l22 33 0 670 c0 663 0 670 -21 704 -39 63 -126
89 -195 59z m115 -85 c11 -11 23 -35 26 -53 3 -18 5 -314 3 -656 l-3 -624 -24
-19 c-35 -28 -85 -25 -110 7 -21 26 -21 34 -21 671 l0 644 25 24 c30 30 77 33
104 6z"/>
<path d="M1206 1777 c-80 -45 -76 -8 -76 -758 l0 -666 23 -33 c63 -93 190 -91
261 4 21 27 21 36 21 700 l0 673 -29 37 c-50 67 -129 84 -200 43z m133 -83
c21 -26 21 -34 21 -669 0 -635 0 -643 -21 -669 -36 -46 -108 -32 -128 25 -15
43 -15 1246 -1 1286 14 37 37 53 76 53 23 0 39 -8 53 -26z"/>
<path d="M1745 1786 c-41 -18 -83 -69 -90 -109 -3 -18 -5 -323 -3 -679 3 -638
3 -647 24 -675 11 -15 36 -38 54 -50 66 -45 167 -18 209 57 21 37 21 48 21
504 l0 465 -22 12 c-18 10 -24 8 -40 -11 -17 -21 -18 -52 -18 -476 0 -441 -1
-455 -20 -474 -28 -28 -81 -26 -108 3 l-22 23 0 650 0 651 23 21 c31 29 77 29
105 -1 20 -22 22 -33 22 -158 0 -148 8 -174 51 -167 l24 3 3 153 c2 142 1 156
-20 193 -37 66 -124 95 -193 65z"/>
</g>
</svg>
